<svg width="253" height="240" viewBox="0 0 253 240" fill="none" xmlns="http://www.w3.org/2000/svg">
<path fill-rule="evenodd" clip-rule="evenodd" d="M89.8997 112.031C81.0972 117.1 70.8872 120 60 120C26.8629 120 0 93.1371 0 60C0 26.8629 26.8629 0 60 0C70.8872 0 81.0972 2.89974 89.8997 7.96904V0H120V240H89.8997V112.031ZM89.699 59.699C89.699 76.2676 76.2675 89.699 59.699 89.699C43.1304 89.699 29.699 76.2676 29.699 59.699C29.699 43.1305 43.1304 29.699 59.699 29.699C76.2675 29.699 89.699 43.1305 89.699 59.699Z" fill="black"/>
<path fill-rule="evenodd" clip-rule="evenodd" d="M162.14 112.031C170.943 117.1 181.153 120 192.04 120C225.177 120 252.04 93.1371 252.04 60C252.04 26.8629 225.177 0 192.04 0C181.153 0 170.943 2.89974 162.14 7.96901V0H132.04V59.9567C132.04 59.9712 132.04 59.9856 132.04 60C132.04 60.0144 132.04 60.0288 132.04 60.0433V240H162.14V112.031ZM162.341 59.699C162.341 76.2676 175.773 89.699 192.341 89.699C208.91 89.699 222.341 76.2676 222.341 59.699C222.341 43.1305 208.91 29.699 192.341 29.699C175.773 29.699 162.341 43.1305 162.341 59.699Z" fill="#FFC000"/>
</svg>
